<svg width="120" height="27" viewBox="0 0 120 27" fill="none" xmlns="http://www.w3.org/2000/svg">
<g clip-path="url(#clip0_156_8415)">
<path d="M19.36 3.41278C18.9805 2.88974 18.5369 2.41586 18.0394 2.00214C17.5428 1.58939 17.0015 1.233 16.4255 0.939574C15.847 0.646082 15.2367 0.419337 14.6063 0.263756C13.9705 0.105391 13.3175 0.0254579 12.662 0.0257571C11.8898 0.0216009 11.1208 0.123378 10.3766 0.328213C9.67219 0.523019 8.99727 0.811028 8.36994 1.18451C7.75364 1.55241 7.18959 2.00065 6.69281 2.51731C5.89724 3.34087 5.27994 4.31796 4.87908 5.38817H8.78473C8.78822 5.38173 8.79271 5.37578 8.7967 5.36983C9.08794 4.94693 9.44079 4.56944 9.84366 4.24974C10.2446 3.93239 10.6922 3.6782 11.1708 3.49608C11.6458 3.31325 12.1507 3.21945 12.66 3.21941C13.2189 3.21486 13.7747 3.3018 14.3052 3.47674C14.7973 3.63942 15.2573 3.88569 15.6648 4.20462C16.0633 4.51984 16.4066 4.89848 16.6808 5.3252C16.6943 5.34553 16.7077 5.36685 16.7207 5.38817C16.9854 5.81349 17.1837 6.27622 17.309 6.76063H4.48871C4.37976 7.31601 4.32533 7.88061 4.32618 8.44646C4.32543 8.9115 4.36295 9.37583 4.43836 9.83479C4.5024 10.2227 4.59573 10.6052 4.71755 10.9792C4.80399 11.2449 4.90485 11.5057 5.01967 11.7606C5.92086 13.7912 7.57405 15.3985 9.63576 16.2484C10.6849 16.6872 11.8125 16.9105 12.9506 16.9048C14.0295 16.9048 15.02 16.7202 15.922 16.351C16.8287 15.9793 17.6701 15.4665 18.4148 14.8318C18.7428 14.5911 18.9068 14.3507 18.9068 14.1103C18.9057 14.0117 18.8813 13.9147 18.8355 13.8272C18.7717 13.7083 18.6959 13.5961 18.6092 13.4925C18.505 13.3631 18.3719 13.205 18.2104 13.016C18.0488 12.8271 17.8474 12.5911 17.6121 12.3075C17.534 12.2024 17.4347 12.1147 17.3204 12.0502C17.2395 12.0037 17.1486 11.9772 17.0552 11.9728C16.9497 11.973 16.8462 12.002 16.7561 12.0566C16.649 12.1214 16.5487 12.1968 16.457 12.2817C16.4552 12.2815 16.4534 12.2816 16.4517 12.2822C16.45 12.2828 16.4485 12.2837 16.4472 12.2849C16.446 12.2862 16.445 12.2877 16.4445 12.2894C16.4439 12.2911 16.4437 12.2929 16.444 12.2946C16.2282 12.4877 15.9963 12.6623 15.751 12.8167C15.4775 12.9899 15.1894 13.1392 14.89 13.263C14.5658 13.3962 14.23 13.4998 13.8869 13.5724C13.5186 13.6506 13.1428 13.6893 12.7662 13.6879C12.2467 13.6864 11.7309 13.6017 11.2386 13.437C10.7288 13.2698 10.2515 13.0173 9.82721 12.6903C9.38859 12.3517 9.0101 11.9424 8.70746 11.4795C8.60233 11.321 8.50869 11.1553 8.42727 10.9836C8.25704 10.6196 8.13568 10.2348 8.06632 9.83925H19.552C19.6063 9.83925 19.6592 9.83925 19.7095 9.83925V3.94629C19.6033 3.76531 19.4852 3.58732 19.36 3.41278Z" fill="#F5F5F5"/>
<path d="M17.3147 9.83837H0.460163C0.33812 9.83837 0.221074 9.79016 0.134777 9.70433C0.0484796 9.6185 0 9.5021 0 9.38072V7.2184C0 7.09702 0.0484796 6.98062 0.134777 6.89479C0.221074 6.80896 0.33812 6.76074 0.460163 6.76074H17.3147V9.83837Z" fill="#F5F5F5"/>
<path d="M34.556 11.0094C34.0934 9.33257 34.0934 7.56277 34.556 5.88595C34.6968 5.38351 34.8774 4.89293 35.0959 4.41879C35.089 4.39648 35.0825 4.37417 35.075 4.35235C34.8148 3.53187 34.3945 2.77046 33.8381 2.11169C33.2881 1.47148 32.6034 0.959275 31.8324 0.611301C31.0384 0.247692 30.1319 0.0658867 29.1128 0.0658867C28.5322 0.0590672 27.9532 0.128589 27.3908 0.272648C26.917 0.395831 26.4604 0.577389 26.0318 0.813105C25.6562 1.01978 25.31 1.27522 25.0023 1.57272C24.7301 1.83562 24.485 2.12479 24.2704 2.43596L24.1278 1.07044C24.0855 0.87486 24.0015 0.690569 23.8815 0.529984C23.7609 0.366856 23.5759 0.282068 23.3251 0.282068H22.0174C21.8963 0.282068 21.7682 0.285044 21.6286 0.288515C21.489 0.291985 21.3873 0.330166 21.318 0.399087C21.2232 0.432804 21.1235 0.518582 21.0188 0.655927C20.9141 0.793273 20.8633 0.922188 20.8633 1.04218V15.8675C20.8633 16.1164 20.9298 16.3075 21.0627 16.4407C21.1956 16.5739 21.405 16.64 21.6909 16.6391H23.8272C23.9694 16.6448 24.1095 16.6039 24.226 16.5225C24.3324 16.4427 24.4153 16.336 24.4663 16.2136C24.5249 16.0739 24.5619 15.9261 24.576 15.7753C24.5935 15.6129 24.6023 15.4497 24.6024 15.2864V6.94059C24.6027 6.44794 24.7273 5.96325 24.9649 5.53094C25.189 5.12512 25.4876 4.7647 25.8453 4.46837C26.195 4.17916 26.5913 3.95068 27.0174 3.79255C27.4118 3.6397 27.8306 3.55891 28.2538 3.55406C28.8318 3.55406 29.3412 3.65703 29.7819 3.86296C30.2053 4.05685 30.5825 4.3379 30.8887 4.68753C31.1864 5.03057 31.417 5.42592 31.5687 5.85323C31.7231 6.28079 31.8019 6.73172 31.8015 7.18603V15.7639C31.8015 16.0897 31.8593 16.3173 31.9765 16.4462C32.0937 16.5751 32.3255 16.6395 32.669 16.6395H34.6373C34.913 16.6395 35.1254 16.5622 35.2714 16.407C35.4175 16.2518 35.4918 16.0212 35.4918 15.7128V13.252C35.0876 12.5459 34.7733 11.7926 34.556 11.0094Z" fill="#F5F5F5"/>
<path d="M52.3663 0.637244C52.3001 0.53784 52.2083 0.457882 52.1005 0.405689C51.982 0.347582 51.8558 0.306356 51.7256 0.28322C51.5889 0.257437 51.45 0.244325 51.3108 0.24405H50.0146C49.9056 0.241838 49.7968 0.252826 49.6905 0.276774C49.6088 0.295624 49.5345 0.33826 49.4772 0.399246C49.4153 0.469155 49.3669 0.549845 49.3346 0.637244C49.2962 0.736411 49.2548 0.862846 49.2114 1.01705L49.031 2.39348C48.7255 2.03877 48.3873 1.71325 48.0209 1.42115C47.647 1.12376 47.2408 0.868966 46.8099 0.66154C46.3615 0.447073 45.8905 0.283094 45.4055 0.172651C44.8873 0.0544917 44.3572 -0.00390602 43.8256 -0.00138669C43.0662 -0.00387004 42.31 0.0979083 41.5786 0.301069C40.87 0.498837 40.1895 0.785412 39.5535 1.1539C38.2948 1.88095 37.2483 2.92169 36.5173 4.17351C36.449 4.28954 36.3842 4.40705 36.3214 4.52655C36.0445 5.05867 35.8237 5.61779 35.6623 6.19502C35.5942 6.43732 35.5376 6.68292 35.4928 6.93182C35.3123 7.93869 35.3123 8.96937 35.4928 9.97623C35.537 10.2215 35.593 10.4636 35.6608 10.7026C35.8578 11.4102 36.1451 12.0897 36.5158 12.7246C36.557 12.7957 36.5996 12.8659 36.6434 12.9353C36.9826 13.4792 37.3827 13.983 37.836 14.4372C38.3472 14.9502 38.9242 15.394 39.552 15.7571C40.1882 16.1251 40.8691 16.4107 41.5781 16.607C42.3095 16.8101 43.0657 16.9119 43.8251 16.9094C44.3173 16.9103 44.8081 16.8565 45.2883 16.7488C45.7515 16.6453 46.2026 16.4942 46.6344 16.2981C47.0504 16.1089 47.4471 15.8802 47.819 15.6153C48.1762 15.362 48.512 15.0801 48.8231 14.7724L48.9003 15.8672C48.9416 16.066 49.023 16.2545 49.1396 16.421C49.248 16.5668 49.4401 16.6399 49.716 16.6402H51.3348C51.4757 16.6406 51.6164 16.6297 51.7555 16.6075C51.88 16.5894 52.0003 16.5503 52.1115 16.4919C52.2229 16.4342 52.315 16.3457 52.377 16.237C52.4389 16.1284 52.4679 16.0043 52.4605 15.8796V1.00515C52.466 0.875986 52.4332 0.748065 52.3663 0.637244ZM48.4108 10.3987C48.161 10.9986 47.8006 11.5468 47.3483 12.0151C46.8965 12.4809 46.3578 12.8549 45.7625 13.1163C45.1449 13.3886 44.4761 13.5268 43.8006 13.5219C43.1419 13.5287 42.4897 13.3902 41.8912 13.1163C41.3164 12.8516 40.7993 12.4775 40.3691 12.0151C39.9331 11.5443 39.5904 10.9959 39.3591 10.3987C38.8758 9.14696 38.8758 7.76159 39.3591 6.50987C39.5905 5.91269 39.9332 5.3643 40.3691 4.89346C40.8003 4.4305 41.3171 4.05442 41.8912 3.78577C42.4886 3.50775 43.1411 3.36693 43.8006 3.37374C44.4768 3.36881 45.146 3.50937 45.7625 3.78577C46.3572 4.0511 46.8955 4.42709 47.3483 4.89346C47.8005 5.36182 48.1609 5.91001 48.4108 6.50987C48.9286 7.75499 48.9286 9.15356 48.4108 10.3987Z" fill="#F5F5F5"/>
<path d="M77.0275 3.41278C76.6483 2.88951 76.2046 2.41559 75.7068 2.00214C75.2108 1.58938 74.67 1.23298 74.0945 0.939572C73.516 0.64608 72.9056 0.419335 72.2753 0.263754C71.6395 0.105389 70.9864 0.0254561 70.3309 0.0257553C69.5588 0.0216306 68.7898 0.123407 68.0456 0.328211C67.3412 0.52313 66.6663 0.811133 66.0389 1.18451C65.4227 1.55254 64.8587 2.00077 64.3618 2.51731C63.8667 3.03149 63.4395 3.60632 63.0905 4.22793C62.882 4.6 62.702 4.98718 62.552 5.38619H66.4577C66.4612 5.37974 66.4657 5.37379 66.4697 5.36784C66.761 4.94506 67.1139 4.56759 67.5166 4.24776C67.9176 3.93051 68.3652 3.67633 68.8438 3.49409C69.3187 3.31126 69.8236 3.21746 70.3329 3.21742C70.8918 3.21297 71.4476 3.29991 71.9782 3.47476C72.4701 3.63729 72.93 3.88358 73.3372 4.20264C73.7357 4.51785 74.0791 4.8965 74.3533 5.32322C74.3667 5.34355 74.3807 5.36487 74.3931 5.38619C74.658 5.8114 74.8564 6.27417 74.9814 6.75865H62.1562C62.0474 7.31405 61.9931 7.87864 61.9942 8.44448C61.9934 8.90952 62.0309 9.37385 62.1063 9.83281C62.1702 10.2207 62.2634 10.6032 62.385 10.9772C62.4715 11.2429 62.5723 11.5038 62.6871 11.7586C63.5883 13.7892 65.2415 15.3965 67.3032 16.2464C68.3524 16.6851 69.48 16.9084 70.6181 16.9029C71.6976 16.9029 72.6881 16.7182 73.5895 16.349C74.4962 15.9773 75.3376 15.4645 76.0822 14.8298C76.4103 14.5891 76.5743 14.3487 76.5743 14.1084C76.5734 14.0097 76.549 13.9127 76.503 13.8252C76.4392 13.7063 76.3634 13.5942 76.2767 13.4906C76.173 13.3611 76.0394 13.203 75.8778 13.0141C75.7163 12.8251 75.5149 12.5891 75.2796 12.3055C75.2017 12.2002 75.1023 12.1125 74.9879 12.0482C74.907 12.0017 74.816 11.9752 74.7227 11.9708C74.6171 11.971 74.5137 12 74.4236 12.0546C74.3165 12.1195 74.2163 12.1949 74.1244 12.2797C74.1227 12.2795 74.1209 12.2796 74.1192 12.2802C74.1175 12.2808 74.116 12.2817 74.1147 12.283C74.1134 12.2842 74.1125 12.2857 74.1119 12.2874C74.1114 12.2891 74.1112 12.2909 74.1115 12.2926C73.8957 12.4858 73.6639 12.6605 73.4185 12.8147C73.145 12.9879 72.8569 13.1372 72.5575 13.261C72.2333 13.3943 71.8975 13.4979 71.5544 13.5704C71.1862 13.6486 70.8106 13.6873 70.4341 13.6859C69.9146 13.6844 69.3986 13.5997 68.9061 13.435C68.3963 13.2677 67.919 13.0152 67.4947 12.6883C67.0561 12.3497 66.6776 11.9404 66.3749 11.4775C66.2698 11.319 66.1762 11.1533 66.0947 10.9816C65.9247 10.6175 65.8035 10.2328 65.7343 9.83727H77.2194C77.2723 9.83727 77.3231 9.83727 77.372 9.83727V3.93687C77.266 3.75937 77.1511 3.58467 77.0275 3.41278ZM78.5232 8.1792V8.78957C78.5266 8.7038 78.5281 8.61157 78.5281 8.5134C78.5291 8.40002 78.528 8.28862 78.5247 8.1792H78.5232Z" fill="#F5F5F5"/>
<path d="M102.092 11.0093C101.629 9.33235 101.629 7.5624 102.092 5.88541C102.218 5.43653 102.375 4.99697 102.563 4.56997C102.543 4.49708 102.522 4.42469 102.5 4.3523C102.257 3.53384 101.86 2.76899 101.329 2.09875C100.807 1.45275 100.145 0.93321 99.3923 0.579518C98.6199 0.210289 97.7243 0.0256753 96.7056 0.0256753C96.126 0.0237738 95.5481 0.0888318 94.9836 0.219544C94.4556 0.339984 93.9444 0.52432 93.4615 0.76843C93.0146 0.995092 92.6027 1.28448 92.2386 1.62771C91.8964 1.94808 91.6118 2.3242 91.397 2.73986C91.1515 2.32756 90.8603 1.94388 90.529 1.59597C90.2126 1.26723 89.8508 0.984772 89.4546 0.757027C89.037 0.520457 88.5869 0.345737 88.1185 0.238386C87.5788 0.116955 87.0267 0.0583856 86.4733 0.0638553C85.8342 0.0638553 85.2753 0.126328 84.7967 0.251278C84.3575 0.36001 83.935 0.52677 83.5403 0.747109C83.1989 0.941201 82.8872 1.1828 82.6145 1.46458C82.3625 1.72733 82.1329 2.01043 81.928 2.31096L81.7859 1.07138C81.7439 0.874167 81.66 0.688185 81.5396 0.52597C81.419 0.36185 81.233 0.278055 80.9832 0.278055H79.678C79.35 0.278055 79.076 0.331604 78.8559 0.438704C78.6359 0.545803 78.5257 0.745456 78.5254 1.03767V15.863C78.5254 16.1119 78.5919 16.303 78.7248 16.4362C78.8589 16.5696 79.0678 16.6345 79.353 16.6345H81.4898C81.5921 16.6377 81.694 16.6206 81.7896 16.584C81.8851 16.5475 81.9723 16.4924 82.0462 16.4218C82.119 16.3512 82.1763 16.2662 82.2142 16.1722C82.2521 16.0783 82.27 15.9776 82.2665 15.8764V6.886C82.266 6.40023 82.3767 5.92072 82.5901 5.48378C82.7856 5.08854 83.0565 4.7349 83.3878 4.44254C83.706 4.16316 84.0724 3.94313 84.4691 3.793C84.8491 3.64607 85.253 3.56977 85.6607 3.56789C86.23 3.56789 86.7219 3.67086 87.1364 3.8768C87.532 4.06766 87.8794 4.34455 88.1529 4.68699C88.4187 5.0266 88.6165 5.41372 88.7357 5.8274C88.8609 6.25155 88.9242 6.69137 88.9237 7.13342V15.7653C88.9237 16.0916 88.9799 16.319 89.0922 16.4476C89.2039 16.576 89.4327 16.641 89.7782 16.641H91.758C92.3183 16.641 92.5987 16.3322 92.599 15.7148V7.13094C92.5927 6.62855 92.6783 6.1292 92.8518 5.65733C93.0062 5.23859 93.2416 4.85401 93.5448 4.52534C93.8373 4.21278 94.1945 3.96698 94.5917 3.8049C95.0109 3.63496 95.4598 3.54967 95.9124 3.55401C96.4827 3.55401 96.9728 3.65483 97.3826 3.85647C97.7771 4.04614 98.1258 4.31807 98.4052 4.65376C98.6805 4.99006 98.8853 5.37783 99.0074 5.79418C99.1371 6.2241 99.2027 6.67066 99.2018 7.11953V15.7649C99.2018 16.0911 99.2602 16.3185 99.3768 16.4471C99.493 16.5755 99.7258 16.6405 100.069 16.6405H102.038C102.314 16.6405 102.525 16.5608 102.672 16.4015C102.819 16.2422 102.892 16.0083 102.892 15.6999V13.0041C102.553 12.3703 102.284 11.7014 102.092 11.0093Z" fill="#F5F5F5"/>
<path d="M119.902 0.637228C119.836 0.537824 119.744 0.457866 119.636 0.405673C119.518 0.347565 119.391 0.30634 119.261 0.283204C119.124 0.257409 118.986 0.244297 118.847 0.244035H117.551C117.442 0.241818 117.333 0.252807 117.227 0.276758C117.145 0.295714 117.071 0.338325 117.013 0.39923C116.951 0.469022 116.903 0.549752 116.871 0.637228C116.823 0.76164 116.782 0.88841 116.748 1.01703L116.566 2.39495C116.261 2.04024 115.923 1.71471 115.557 1.42262C115.183 1.12566 114.776 0.870898 114.346 0.66301C113.897 0.448604 113.426 0.284628 112.94 0.174121C112.422 0.0558778 111.892 -0.00252127 111.361 8.34209e-05C110.602 -0.00236062 109.846 0.0994204 109.115 0.302542C108.406 0.499361 107.725 0.785105 107.088 1.15289C105.83 1.88019 104.783 2.92085 104.051 4.17251C103.952 4.3396 103.861 4.50918 103.775 4.68321C103.536 5.16765 103.342 5.67328 103.197 6.19351C102.791 7.6689 102.791 9.22573 103.197 10.7011C103.393 11.4036 103.677 12.0785 104.045 12.7092C104.048 12.7137 104.05 12.7182 104.053 12.7231C104.418 13.3475 104.862 13.923 105.374 14.4357C105.885 14.949 106.462 15.3928 107.09 15.7556C107.726 16.1237 108.407 16.4093 109.116 16.6055C109.847 16.8086 110.603 16.9104 111.362 16.9079C111.855 16.9088 112.346 16.855 112.826 16.7473C113.289 16.6437 113.74 16.4926 114.172 16.2966C114.588 16.1074 114.985 15.8787 115.357 15.6138C115.714 15.3606 116.049 15.0787 116.36 14.7709L116.438 15.8657C116.479 16.0646 116.561 16.253 116.678 16.4195C116.786 16.5653 116.977 16.6387 117.254 16.6387H118.872C119.013 16.6392 119.154 16.6282 119.293 16.606C119.418 16.5878 119.538 16.5488 119.649 16.4904C119.761 16.433 119.853 16.3445 119.915 16.2358C119.977 16.1271 120.006 16.0028 119.998 15.8781V1.00513C120.003 0.875771 119.97 0.747835 119.902 0.637228ZM115.946 10.3987C115.697 10.9984 115.337 11.5466 114.885 12.0151C114.432 12.4806 113.894 12.8545 113.298 13.1163C112.681 13.3885 112.012 13.5267 111.337 13.5219C110.678 13.5286 110.025 13.3901 109.427 13.1163C108.852 12.8515 108.335 12.4774 107.905 12.0151C107.469 11.5445 107.126 10.9961 106.895 10.3987C106.412 9.14694 106.412 7.76157 106.895 6.50985C107.126 5.91251 107.469 5.36405 107.905 4.89345C108.336 4.4305 108.853 4.05442 109.427 3.78575C110.024 3.50784 110.677 3.36702 111.337 3.37372C112.013 3.36889 112.682 3.50944 113.298 3.78575C113.893 4.05148 114.431 4.42741 114.885 4.89345C115.336 5.36197 115.696 5.91014 115.946 6.50985C116.464 7.75497 116.464 9.15354 115.946 10.3987Z" fill="#F5F5F5"/>
<path d="M74.9827 9.83837H58.1281C58.0061 9.83837 57.889 9.79016 57.8028 9.70433C57.7165 9.6185 57.668 9.5021 57.668 9.38072V7.2184C57.668 7.09702 57.7165 6.98062 57.8028 6.89479C57.889 6.80896 58.0061 6.76074 58.1281 6.76074H74.9827V9.83837Z" fill="#F5F5F5"/>
<path d="M21.2955 20.9673C21.2944 20.9427 21.2987 20.9182 21.308 20.8955C21.3173 20.8727 21.3314 20.8522 21.3494 20.8354C21.3868 20.8017 21.436 20.7839 21.4865 20.7858H25.8483C25.8971 20.7855 25.9445 20.8016 25.9829 20.8314C26.0036 20.8477 26.0204 20.8684 26.0322 20.8918C26.0439 20.9153 26.0505 20.941 26.0512 20.9673V21.6887C26.0527 21.7414 26.035 21.7928 26.0014 21.8335C25.9828 21.8543 25.9596 21.8707 25.9337 21.8814C25.9078 21.892 25.8798 21.8967 25.8518 21.895H24.2764V26.7199C24.2769 26.7685 24.2592 26.8156 24.2265 26.8518C24.2084 26.8712 24.1862 26.8865 24.1614 26.8964C24.1367 26.9064 24.1101 26.9108 24.0834 26.9093H23.2608C23.2108 26.9089 23.1628 26.8898 23.1262 26.8558C23.1068 26.8389 23.0913 26.818 23.0809 26.7945C23.0704 26.771 23.0653 26.7456 23.0659 26.7199V21.895H21.4865C21.4615 21.8962 21.4365 21.8924 21.4129 21.8839C21.3894 21.8754 21.3678 21.8623 21.3494 21.8454C21.3302 21.8247 21.3155 21.8002 21.3062 21.7736C21.297 21.747 21.2933 21.7188 21.2955 21.6907V20.9673Z" fill="#F5F5F5"/>
<path d="M28.2653 20.9836C28.2653 20.8514 28.3261 20.7853 28.4478 20.7853H32.4447C32.4732 20.7825 32.502 20.7865 32.5287 20.7969C32.5554 20.8073 32.5792 20.8239 32.5982 20.8453C32.6294 20.8886 32.6455 20.9408 32.6441 20.994V21.7224C32.6448 21.7712 32.627 21.8185 32.5942 21.8548C32.574 21.875 32.5497 21.8907 32.5228 21.9007C32.496 21.9107 32.4673 21.9148 32.4387 21.9128H29.4877V23.1623H31.7596C31.783 23.1584 31.8069 23.1595 31.8298 23.1656C31.8527 23.1717 31.874 23.1826 31.8923 23.1975C31.9107 23.2169 31.9247 23.24 31.9333 23.2652C31.9419 23.2905 31.9449 23.3173 31.9421 23.3438V24.09C31.9428 24.1372 31.9283 24.1835 31.9007 24.2219C31.8854 24.242 31.8652 24.2578 31.842 24.268C31.8188 24.2781 31.7934 24.2822 31.7681 24.2799H29.4877V25.7768H32.5434C32.6206 25.7768 32.672 25.7932 32.6969 25.8264C32.7253 25.8721 32.7384 25.9256 32.7343 25.9791V26.7328C32.7343 26.8482 32.6735 26.906 32.5518 26.9063H28.4468C28.4004 26.9076 28.355 26.8931 28.3181 26.8652C28.2993 26.849 28.2845 26.8287 28.2752 26.8057C28.2658 26.7828 28.2621 26.758 28.2643 26.7333L28.2653 20.9836Z" fill="#F5F5F5"/>
<path d="M39.6021 21.2311C39.6338 21.2493 39.6619 21.2732 39.6849 21.3015C39.7072 21.3297 39.7188 21.3648 39.7178 21.4006C39.7172 21.4338 39.7088 21.4664 39.6934 21.4958L39.2911 22.1761C39.2755 22.2026 39.2538 22.225 39.2278 22.2415C39.2018 22.258 39.1722 22.268 39.1415 22.2708C39.1218 22.2703 39.1023 22.2668 39.0837 22.2604C39.0602 22.2533 39.0379 22.2429 39.0173 22.2297C38.8458 22.107 38.6572 22.0098 38.4575 21.9411C38.2534 21.8714 38.039 21.8365 37.8233 21.838C37.5564 21.8349 37.292 21.889 37.0481 21.9966C36.8182 22.0988 36.611 22.2452 36.4383 22.4275C36.265 22.6128 36.1295 22.8299 36.0395 23.0666C35.9427 23.318 35.8942 23.5853 35.8964 23.8545C35.8943 24.1216 35.9429 24.3867 36.0395 24.6359C36.1299 24.8719 36.2653 25.0883 36.4383 25.2731C36.6158 25.4607 36.8306 25.6097 37.069 25.7105C37.3074 25.8113 37.5643 25.8617 37.8233 25.8586C38.0411 25.8595 38.2575 25.8246 38.464 25.7555C38.6648 25.6878 38.8542 25.5903 39.0258 25.4664C39.0461 25.4509 39.0693 25.4398 39.0941 25.4337C39.1176 25.4283 39.1375 25.4243 39.154 25.4213C39.1835 25.4247 39.2119 25.4346 39.2371 25.4503C39.2623 25.466 39.2836 25.4871 39.2995 25.5121L39.7098 26.2008C39.7251 26.2287 39.7336 26.2598 39.7348 26.2915C39.7359 26.3265 39.7232 26.3605 39.6994 26.3862C39.6748 26.412 39.6477 26.4354 39.6186 26.4561C39.3594 26.6292 39.0767 26.7646 38.779 26.8582C38.4726 26.9542 38.153 27.0022 37.8318 27.0005C37.5469 27.0015 37.2631 26.9641 36.9882 26.8895C36.723 26.8172 36.4685 26.7103 36.2314 26.5717C35.763 26.2975 35.3722 25.9095 35.0957 25.4441C34.9562 25.2091 34.8487 24.9567 34.7762 24.6934C34.6637 24.2872 34.634 23.8627 34.6889 23.4448C34.7438 23.027 34.8821 22.6243 35.0957 22.2604C35.2328 22.0267 35.3992 21.8113 35.5908 21.6193C35.7819 21.428 35.9972 21.2623 36.2314 21.1264C36.4692 20.9892 36.7235 20.8826 36.9882 20.8091C37.5723 20.6497 38.1898 20.6583 38.7691 20.8339C39.0644 20.9259 39.345 21.0597 39.6021 21.2311Z" fill="#F5F5F5"/>
<path d="M42.0898 20.9673C42.0903 20.9206 42.1081 20.8758 42.1397 20.8414C42.1557 20.8229 42.1758 20.8083 42.1983 20.7987C42.2209 20.7891 42.2453 20.7847 42.2698 20.7858H43.0959C43.1453 20.7867 43.1925 20.8058 43.2285 20.8394C43.2478 20.8547 43.2634 20.8742 43.2741 20.8963C43.2848 20.9185 43.2904 20.9427 43.2904 20.9673V23.1033H46.0723V20.9673C46.0716 20.9198 46.0895 20.874 46.1221 20.8394C46.139 20.8215 46.1595 20.8075 46.1823 20.7982C46.2051 20.789 46.2297 20.7848 46.2543 20.7858H47.0684C47.1203 20.7853 47.1707 20.8029 47.211 20.8354C47.2306 20.8508 47.2462 20.8706 47.2566 20.8932C47.267 20.9158 47.2719 20.9405 47.2708 20.9653V26.7298C47.2708 26.8508 47.206 26.9113 47.0764 26.9113H46.2543C46.1329 26.9113 46.0723 26.8508 46.0723 26.7298V24.2353H43.2904V26.7298C43.2904 26.8508 43.2229 26.9113 43.0879 26.9113H42.2698C42.1512 26.9113 42.0918 26.8553 42.0918 26.7422L42.0898 20.9673Z" fill="#F5F5F5"/>
<path d="M49.8597 20.9711C49.8589 20.9225 49.8767 20.8753 49.9095 20.8392C49.9266 20.821 49.9476 20.8068 49.9708 20.7975C49.9941 20.7883 50.0191 20.7842 50.0441 20.7857H50.9979C51.0362 20.7856 51.0741 20.7948 51.1081 20.8125C51.1454 20.833 51.1774 20.8621 51.2013 20.8973C51.6739 21.5683 52.1424 22.2342 52.6067 22.895C53.071 23.5557 53.5395 24.2216 54.0121 24.8927V20.9424C54.0181 20.8976 54.0403 20.8566 54.0744 20.8268C54.1083 20.7993 54.1509 20.7847 54.1946 20.7857H54.9923C55.0444 20.7845 55.0953 20.8021 55.1354 20.8353C55.1551 20.851 55.1708 20.8712 55.1813 20.8941C55.1917 20.917 55.1967 20.942 55.1957 20.9672V26.7386C55.1957 26.8517 55.1309 26.9077 55.0007 26.9077H54.1034C54.0425 26.9077 53.9862 26.8705 53.9334 26.7967C53.4468 26.0956 52.9623 25.3951 52.4801 24.6953C51.9978 23.9955 51.5149 23.2939 51.0313 22.5905V26.7263C51.0352 26.7757 51.0194 26.8246 50.9874 26.8626C50.9668 26.8798 50.943 26.8926 50.9173 26.9003C50.8916 26.9081 50.8645 26.9106 50.8378 26.9077H50.0402C50.0148 26.9096 49.9894 26.9062 49.9655 26.8976C49.9417 26.8891 49.9199 26.8756 49.9016 26.8581C49.8708 26.822 49.8551 26.7755 49.8577 26.7282L49.8597 20.9711Z" fill="#F5F5F5"/>
<path d="M57.5332 23.8539C57.5318 23.2945 57.6807 22.7449 57.9645 22.2618C58.1022 22.0291 58.2687 21.8144 58.46 21.6227C58.6509 21.4313 58.8663 21.2657 59.1007 21.1303C59.3384 20.9929 59.5927 20.8861 59.8575 20.8125C60.4083 20.6618 60.9898 20.6618 61.5406 20.8125C61.8054 20.8861 62.0597 20.9929 62.2974 21.1303C62.7686 21.4035 63.1607 21.7933 63.4356 22.2618C63.5737 22.4989 63.6809 22.7525 63.7547 23.0165C63.8316 23.2909 63.87 23.5745 63.8688 23.8594C63.8701 24.1423 63.8316 24.424 63.7547 24.6964C63.6805 24.959 63.5733 25.2112 63.4356 25.447C63.2991 25.6801 63.1325 25.8943 62.94 26.0842C62.5413 26.4753 62.0464 26.7556 61.5047 26.8971C60.963 27.0385 60.3935 27.0362 59.853 26.8904C59.0582 26.6707 58.3803 26.1525 57.9625 25.4451C57.6797 24.9626 57.5315 24.4139 57.5332 23.8554V23.8539ZM58.7297 23.8455C58.7272 24.1126 58.7781 24.3775 58.8793 24.625C58.9757 24.8597 59.1165 25.0738 59.2941 25.2556C59.4719 25.436 59.6832 25.5804 59.9163 25.6806C60.1615 25.784 60.4252 25.8373 60.6915 25.8373C60.9579 25.8373 61.2216 25.784 61.4668 25.6806C61.7002 25.5798 61.9121 25.4356 62.091 25.2556C62.2695 25.0743 62.4109 24.86 62.5073 24.625C62.7091 24.1261 62.7091 23.5689 62.5073 23.07C62.3138 22.5947 61.94 22.2141 61.4668 22.0104C61.2216 21.907 60.9579 21.8538 60.6915 21.8538C60.4252 21.8538 60.1615 21.907 59.9163 22.0104C59.6829 22.111 59.4715 22.256 59.2941 22.4373C58.928 22.8153 58.7249 23.3207 58.7282 23.8455H58.7297Z" fill="#F5F5F5"/>
<path d="M66.207 20.9672C66.2064 20.9198 66.2243 20.8739 66.2569 20.8393C66.2751 20.8209 66.2971 20.8065 66.3213 20.7973C66.3456 20.7881 66.3716 20.7841 66.3975 20.7858H67.2196C67.2677 20.7856 67.3141 20.8033 67.3497 20.8353C67.3686 20.852 67.3834 20.8727 67.3931 20.8959C67.4028 20.9191 67.407 20.9442 67.4056 20.9692V25.7818H70.001C70.0247 25.7811 70.0483 25.7852 70.0703 25.7937C70.0924 25.8022 70.1126 25.815 70.1297 25.8313C70.1478 25.8494 70.1619 25.8711 70.1712 25.8949C70.1805 25.9187 70.1847 25.9442 70.1835 25.9697V26.7243C70.1841 26.7724 70.1663 26.8188 70.1336 26.8542C70.1171 26.8727 70.0965 26.8872 70.0736 26.8968C70.0507 26.9064 70.0259 26.9109 70.001 26.9098H66.389C66.2677 26.9098 66.207 26.8493 66.207 26.7283V20.9672Z" fill="#F5F5F5"/>
<path d="M72.0215 23.8539C72.0201 23.2945 72.169 22.7449 72.4527 22.2618C72.5905 22.0291 72.757 21.8144 72.9483 21.6227C73.1392 21.4313 73.3546 21.2657 73.5889 21.1303C73.8267 20.9929 74.081 20.8861 74.3457 20.8125C74.8965 20.6618 75.4781 20.6618 76.0289 20.8125C76.2936 20.8861 76.5479 20.9929 76.7857 21.1303C77.0204 21.2661 77.2364 21.4316 77.4283 21.6227C77.6203 21.8137 77.7869 22.0285 77.9239 22.2618C78.062 22.4989 78.1692 22.7525 78.2429 23.0165C78.3199 23.2909 78.3583 23.5745 78.3571 23.8594C78.3583 24.1423 78.3199 24.424 78.2429 24.6964C78.1688 24.959 78.0616 25.2112 77.9239 25.447C77.7872 25.68 77.6207 25.8942 77.4283 26.0842C77.0296 26.4753 76.5347 26.7556 75.993 26.8971C75.4513 27.0385 74.8818 27.0362 74.3413 26.8904C73.6731 26.7081 73.0839 26.3121 72.6647 25.7636C72.2454 25.215 72.0194 24.5445 72.0215 23.8554V23.8539ZM73.218 23.8455C73.2155 24.1126 73.2663 24.3775 73.3676 24.625C73.4639 24.8597 73.6048 25.0738 73.7824 25.2556C73.9601 25.4359 74.1712 25.5802 74.4041 25.6806C74.6494 25.784 74.9131 25.8373 75.1796 25.8373C75.446 25.8373 75.7098 25.784 75.9551 25.6806C76.1884 25.58 76.4002 25.4357 76.5788 25.2556C76.7577 25.0744 76.8992 24.8602 76.9955 24.625C77.1974 24.1261 77.1974 23.5689 76.9955 23.07C76.8016 22.5949 76.428 22.2145 75.9551 22.0104C75.7098 21.907 75.446 21.8537 75.1796 21.8537C74.9131 21.8537 74.6494 21.907 74.4041 22.0104C74.1709 22.1111 73.9597 22.2562 73.7824 22.4373C73.4163 22.8153 73.2132 23.3207 73.2165 23.8455H73.218Z" fill="#F5F5F5"/>
<path d="M84.5166 24.3489C84.5144 24.3005 84.5308 24.2532 84.5625 24.2165C84.5804 24.1991 84.6019 24.1856 84.6255 24.1771C84.649 24.1685 84.6741 24.1651 84.6991 24.1669H85.3751C85.4238 24.1676 85.4707 24.1852 85.5078 24.2165C85.5279 24.2321 85.544 24.2523 85.5548 24.2753C85.5656 24.2983 85.5709 24.3235 85.5701 24.3489V26.2429C85.5699 26.2761 85.5613 26.3086 85.5451 26.3376C85.5225 26.3736 85.4911 26.4035 85.4539 26.4244C85.4509 26.4244 85.4494 26.4244 85.4494 26.4244C85.4494 26.4244 85.4494 26.4244 85.4454 26.4244C85.3128 26.5168 85.1727 26.5983 85.0267 26.6679C84.8755 26.7401 84.7188 26.8001 84.558 26.8473C84.3936 26.8956 84.226 26.9327 84.0565 26.9584C83.8864 26.9845 83.7146 26.9976 83.5425 26.9976C83.2582 26.9983 82.9751 26.9609 82.7009 26.8865C82.4355 26.8147 82.1809 26.7078 81.9441 26.5687C81.4768 26.2935 81.0868 25.9058 80.8099 25.4412C80.6705 25.2061 80.5632 24.9537 80.4908 24.6905C80.3785 24.2853 80.3489 23.8619 80.4037 23.4451C80.4585 23.0284 80.5966 22.6267 80.8099 22.2639C80.9475 22.0311 81.114 21.8163 81.3055 21.6248C81.4966 21.4327 81.7119 21.266 81.9461 21.1289C82.1835 20.9905 82.4379 20.883 82.7029 20.8091C82.9775 20.733 83.2614 20.695 83.5465 20.6961C83.7431 20.6955 83.9395 20.7121 84.1333 20.7457C84.3262 20.7799 84.5157 20.8316 84.6991 20.9003C84.7682 20.9281 84.8505 20.9625 84.9459 21.0035C85.039 21.0436 85.1298 21.0892 85.2176 21.1398C85.2949 21.1834 85.3677 21.2344 85.435 21.2921C85.4599 21.3097 85.4808 21.3325 85.4962 21.3588C85.5115 21.3852 85.5211 21.4145 85.5242 21.4448C85.5192 21.482 85.5065 21.5178 85.4868 21.5499C85.4619 21.5995 85.431 21.6525 85.3936 21.713C85.3562 21.7735 85.3143 21.836 85.267 21.9004C85.2196 21.9649 85.1747 22.0234 85.1304 22.0755C85.086 22.1275 85.0461 22.1712 85.0102 22.2059C84.9889 22.231 84.9598 22.2485 84.9274 22.2555C84.907 22.2551 84.8866 22.2517 84.8671 22.2455C84.8406 22.2371 84.8159 22.2238 84.7943 22.2064C84.6134 22.082 84.415 21.9848 84.2055 21.9178C83.9904 21.8465 83.7652 21.8102 83.5385 21.8102C83.2682 21.8071 83.0001 21.8597 82.7513 21.9648C82.5025 22.0698 82.2782 22.225 82.0927 22.4206C81.7291 22.8076 81.5275 23.3179 81.5288 23.8476C81.5271 24.1188 81.5814 24.3875 81.6884 24.6369C81.7903 24.8767 81.9366 25.0954 82.1196 25.2815C82.3021 25.4649 82.5182 25.6119 82.7562 25.7144C83.0007 25.8203 83.2648 25.8744 83.5315 25.873C83.6328 25.8732 83.734 25.8656 83.8341 25.8502C83.9284 25.8364 84.0218 25.8172 84.1138 25.7927C84.1936 25.7719 84.2719 25.7457 84.3481 25.7144C84.407 25.6908 84.4639 25.6624 84.5181 25.6296L84.5166 24.3489Z" fill="#F5F5F5"/>
<path d="M88.1036 20.9673C88.1025 20.9206 88.1186 20.8751 88.1489 20.8394C88.1661 20.8209 88.1873 20.8064 88.2108 20.7972C88.2344 20.7879 88.2598 20.784 88.285 20.7858H89.1077C89.1562 20.7864 89.203 20.804 89.2398 20.8354C89.2598 20.851 89.2759 20.871 89.2867 20.894C89.2974 20.9169 89.3025 20.942 89.3016 20.9673V26.7279C89.3016 26.8489 89.2369 26.9094 89.1077 26.9094H88.285C88.1637 26.9094 88.1032 26.8489 88.1036 26.7279V20.9673Z" fill="#F5F5F5"/>
<path d="M91.8945 20.9836C91.8945 20.8514 91.9554 20.7853 92.077 20.7853H96.0739C96.1024 20.7825 96.1312 20.7865 96.1579 20.7969C96.1846 20.8073 96.2084 20.8239 96.2274 20.8453C96.2585 20.8886 96.2744 20.9408 96.2728 20.994V21.7224C96.2737 21.7712 96.2559 21.8186 96.223 21.8548C96.2029 21.8751 96.1787 21.8908 96.1519 21.9008C96.1251 21.9109 96.0964 21.9149 96.0679 21.9128H93.1195V23.1623H95.3919C95.4152 23.1584 95.4391 23.1595 95.462 23.1656C95.4849 23.1717 95.5062 23.1825 95.5245 23.1975C95.5429 23.2168 95.5569 23.2399 95.5655 23.2652C95.5742 23.2904 95.5772 23.3173 95.5743 23.3438V24.09C95.575 24.1372 95.5605 24.1834 95.533 24.2219C95.5175 24.2418 95.4972 24.2575 95.4741 24.2676C95.4509 24.2777 95.4256 24.282 95.4004 24.2799H93.1195V25.7768H96.1756C96.2529 25.7768 96.3042 25.7932 96.3286 25.8264C96.357 25.8721 96.3701 25.9256 96.366 25.9791V26.7328C96.366 26.8481 96.3052 26.906 96.1836 26.9063H92.079C92.0326 26.9076 91.9873 26.8931 91.9504 26.8652C91.9315 26.849 91.9168 26.8286 91.9074 26.8057C91.898 26.7828 91.8943 26.7579 91.8965 26.7333L91.8945 20.9836Z" fill="#F5F5F5"/>
<path d="M102.102 22.4186C102.067 22.4192 102.032 22.4099 102.002 22.3918C101.966 22.3702 101.931 22.3462 101.898 22.3199L101.89 22.3159C101.826 22.2538 101.758 22.1958 101.687 22.1424C101.599 22.0764 101.506 22.0172 101.409 21.9654C101.303 21.9091 101.193 21.8621 101.079 21.8251C100.963 21.7868 100.842 21.7674 100.721 21.7675C100.582 21.7649 100.444 21.7815 100.31 21.8171C100.203 21.846 100.102 21.8935 100.011 21.9574C99.9351 22.012 99.8726 22.0832 99.8287 22.1657C99.7875 22.2447 99.7661 22.3325 99.7664 22.4215C99.7649 22.5165 99.7981 22.6088 99.8596 22.6814C99.9309 22.7626 100.017 22.8299 100.113 22.8797C100.231 22.9424 100.353 22.9954 100.48 23.0384C100.618 23.0863 100.763 23.1337 100.915 23.1807C101.089 23.2329 101.262 23.2893 101.433 23.3497C101.601 23.4085 101.765 23.4767 101.925 23.554C102.076 23.6269 102.223 23.7109 102.362 23.8054C102.493 23.894 102.61 24.0009 102.711 24.1227C102.809 24.243 102.888 24.3781 102.943 24.5229C103.002 24.6816 103.03 24.8497 103.028 25.0187C103.032 25.3001 102.97 25.5785 102.845 25.8314C102.725 26.0721 102.553 26.2838 102.342 26.4517C102.117 26.6293 101.861 26.7639 101.587 26.8483C101.286 26.942 100.972 26.9885 100.656 26.9862C100.443 26.986 100.23 26.9612 100.022 26.9123C99.8136 26.8632 99.6107 26.7926 99.4169 26.7016C99.2235 26.6109 99.0398 26.5011 98.8685 26.3738C98.6981 26.2484 98.5429 26.1038 98.4059 25.9429V25.9469L98.3979 25.9305C98.3453 25.8805 98.3129 25.8132 98.3066 25.7411C98.3066 25.7105 98.3152 25.6804 98.3316 25.6544C98.3527 25.6214 98.3777 25.5909 98.4059 25.5636L98.543 25.4278C98.5843 25.3921 98.6287 25.3519 98.6756 25.3078C98.7205 25.2656 98.7676 25.2257 98.8167 25.1883C98.8635 25.1526 98.9069 25.1223 98.9473 25.0975C98.9765 25.0764 99.011 25.0635 99.047 25.0604C99.0861 25.0604 99.124 25.0735 99.1547 25.0975C99.1841 25.119 99.2119 25.1425 99.2379 25.168L99.2544 25.1843H99.2504C99.352 25.2789 99.4607 25.3658 99.5755 25.4441C99.6943 25.5256 99.8184 25.5993 99.9469 25.6648C100.068 25.7271 100.195 25.7782 100.326 25.8175C100.441 25.8527 100.561 25.8714 100.681 25.873C100.825 25.8741 100.969 25.8545 101.108 25.815C101.231 25.7811 101.348 25.7261 101.452 25.6524C101.545 25.5857 101.623 25.4996 101.679 25.4C101.735 25.2991 101.763 25.1855 101.762 25.0703C101.764 24.957 101.726 24.8466 101.654 24.7589C101.575 24.6666 101.479 24.5898 101.372 24.5323C101.248 24.4638 101.116 24.4078 100.98 24.3652C100.835 24.3186 100.69 24.2746 100.543 24.2333C100.24 24.1446 99.9444 24.0344 99.6577 23.9036C99.4293 23.8013 99.2164 23.6678 99.0251 23.5069C98.8647 23.3703 98.7356 23.2013 98.6461 23.0111C98.5593 22.8173 98.516 22.6069 98.5195 22.3948C98.5156 22.1561 98.5677 21.9199 98.6715 21.7047C98.7754 21.4896 98.9281 21.3014 99.1178 21.1552C99.3239 20.9977 99.5572 20.8791 99.8063 20.8051C100.098 20.7178 100.402 20.6754 100.706 20.6792C100.966 20.6805 101.225 20.7201 101.473 20.7967C101.727 20.8724 101.969 20.9813 102.194 21.1205C102.261 21.1615 102.329 21.2082 102.398 21.2608C102.467 21.3104 102.53 21.3659 102.588 21.4195C102.641 21.4669 102.689 21.5194 102.731 21.5762C102.761 21.606 102.78 21.6447 102.786 21.6864C102.792 21.7281 102.783 21.7705 102.763 21.8072C102.746 21.8408 102.725 21.872 102.7 21.8999L102.576 22.0318V22.0283L102.448 22.1647C102.406 22.2091 102.361 22.2512 102.314 22.2906C102.271 22.3273 102.23 22.3586 102.194 22.3834C102.168 22.404 102.135 22.4163 102.102 22.4186Z" fill="#F5F5F5"/>
</g>
<defs>
<clipPath id="clip0_156_8415">
<rect width="120" height="27" fill="white"/>
</clipPath>
</defs>
</svg>
